<svg xmlns="http://www.w3.org/2000/svg" width="40.048" height="40.048" viewBox="0 0 40.048 40.048">
  <g id="computer" transform="translate(0.5 0.5)">
    <path id="Path_758" data-name="Path 758" d="M35.235,0H3.813A3.818,3.818,0,0,0,0,3.813V27.151a3.818,3.818,0,0,0,3.813,3.813h11.9v3.508h-.763a3.814,3.814,0,0,0-3.813,3.813.763.763,0,0,0,.763.763H27.151a.763.763,0,0,0,.763-.763A3.818,3.818,0,0,0,24.1,34.472h-.763V30.964h11.9a3.818,3.818,0,0,0,3.813-3.813V3.813A3.818,3.818,0,0,0,35.235,0ZM3.813,1.525H35.235a2.29,2.29,0,0,1,2.288,2.288V23.337H34.015V5.8a.763.763,0,0,0-.763-.763h-6.1a.763.763,0,0,0-.763.763V23.337H22.571c-.008-.789-.029-1.566-.061-2.321a49.055,49.055,0,0,0-.6-6.1,3.814,3.814,0,0,0,1.041-4.974L20.311,5.362a.763.763,0,0,0-1.321,0L16.346,9.941a3.813,3.813,0,0,0,.839,4.813,48.414,48.414,0,0,0-.643,6.262c-.034.762-.056,1.541-.064,2.322H12.66V11.9a.759.759,0,0,0-.075-.329s0-.008-.005-.012l-3.051-6.1a.763.763,0,0,0-1.364,0l-3.051,6.1,0,.012a.758.758,0,0,0-.076.329v11.44H1.525V3.813A2.29,2.29,0,0,1,3.813,1.525Zm24.1,21.812V6.559h4.576V8.084h-.763a.763.763,0,1,0,0,1.525h.763V11.9h-.763a.763.763,0,1,0,0,1.525h.763v2.288h-.763a.763.763,0,0,0,0,1.525h.763v3.051h-.763a.763.763,0,1,0,0,1.525h.763v1.525Zm-8.263-7.679a3.819,3.819,0,0,0,.823-.091c.142.907.349,2.512.472,4.72H18.107c.129-2.206.347-3.837.5-4.774a3.818,3.818,0,0,0,1.046.146Zm0-1.525a2.291,2.291,0,0,1-1.984-3.43l1.984-3.434L21.633,10.7a2.289,2.289,0,0,1-1.983,3.43Zm-1.614,7.679h2.976c.016.5.027,1.011.032,1.525H18C18.009,22.826,18.02,22.317,18.037,21.812ZM9.61,23.337V12.66h1.525V23.337Zm-3.051,0V12.66H8.084V23.337Zm.471-12.2L8.847,7.5l1.817,3.633ZM26.257,37.523H12.79A2.292,2.292,0,0,1,14.948,36H24.1a2.292,2.292,0,0,1,2.157,1.525Zm-4.445-3.051H17.236V30.964h4.576Zm13.423-5.034H3.813a2.29,2.29,0,0,1-2.288-2.288V24.863h36v2.288A2.29,2.29,0,0,1,35.235,29.439Zm0,0" transform="translate(0 0)" fill="#18212e" stroke="#18212e" stroke-width="1"/>
  </g>
</svg>
