<svg xmlns="http://www.w3.org/2000/svg" width="107.442" height="107.442" viewBox="0 0 107.442 107.442">
  <path id="Path_758" data-name="Path 758" d="M96.949,0H10.492A10.5,10.5,0,0,0,0,10.492V74.705A10.5,10.5,0,0,0,10.492,85.2H43.228v9.653h-2.1a10.5,10.5,0,0,0-10.492,10.492,2.1,2.1,0,0,0,2.1,2.1H74.705a2.1,2.1,0,0,0,2.1-2.1A10.5,10.5,0,0,0,66.312,94.851h-2.1V85.2H96.949a10.5,10.5,0,0,0,10.492-10.492V10.492A10.5,10.5,0,0,0,96.949,0ZM10.492,4.2H96.949a6.3,6.3,0,0,1,6.3,6.3V64.213H93.592V15.948a2.1,2.1,0,0,0-2.1-2.1H74.705a2.1,2.1,0,0,0-2.1,2.1V64.213H62.1c-.022-2.171-.079-4.31-.169-6.386a134.977,134.977,0,0,0-1.639-16.789A10.494,10.494,0,0,0,63.16,27.351l-7.273-12.6a2.1,2.1,0,0,0-3.635,0l-7.277,12.6a10.491,10.491,0,0,0,2.309,13.242,133.211,133.211,0,0,0-1.769,17.229c-.094,2.1-.154,4.239-.177,6.39h-10.5V32.736a2.087,2.087,0,0,0-.207-.906c-.006-.011-.009-.022-.014-.033L26.219,15.01a2.1,2.1,0,0,0-3.754,0L14.071,31.8c0,.011-.008.022-.013.033a2.086,2.086,0,0,0-.208.906V64.213H4.2V10.492a6.3,6.3,0,0,1,6.3-6.3ZM76.8,64.213V18.047H89.395v4.2H87.3a2.1,2.1,0,0,0,0,4.2h2.1v6.3H87.3a2.1,2.1,0,0,0,0,4.2h2.1v6.3H87.3a2.1,2.1,0,0,0,0,4.2h2.1v8.394H87.3a2.1,2.1,0,0,0,0,4.2h2.1v4.2ZM54.069,43.083a10.508,10.508,0,0,0,2.264-.252c.389,2.5.962,6.913,1.3,12.988H49.822c.355-6.071.954-10.556,1.368-13.137a10.5,10.5,0,0,0,2.879.4Zm0-4.2a6.3,6.3,0,0,1-5.458-9.437L54.069,20l5.455,9.449a6.3,6.3,0,0,1-5.455,9.437Zm-4.44,21.13h8.188c.044,1.379.075,2.781.089,4.2H49.535C49.551,62.806,49.583,61.4,49.63,60.016Zm-23.189,4.2V34.835h4.2V64.213Zm-8.394,0V34.835h4.2V64.213Zm1.3-33.575,5-10,5,10Zm52.9,72.607H35.192a6.308,6.308,0,0,1,5.938-4.2H66.311a6.305,6.305,0,0,1,5.936,4.2ZM60.016,94.851H47.425V85.2H60.016ZM96.949,81H10.492a6.3,6.3,0,0,1-6.3-6.3v-6.3h99.048v6.3A6.3,6.3,0,0,1,96.949,81Zm0,0" fill="#17b8bc"/>
</svg>
