<svg id="quality" xmlns="http://www.w3.org/2000/svg" width="109.91" height="109.968" viewBox="0 0 109.91 109.968">
  <path id="Path_1083" data-name="Path 1083" d="M198.33,193.248l-16.523,15.606-7.93-8.158a2.285,2.285,0,0,0-3.277,3.185l9.511,9.763a2.327,2.327,0,0,0,3.232.068l18.173-17.141a2.283,2.283,0,0,0,.091-3.232,2.339,2.339,0,0,0-3.277-.091Zm0,0" transform="translate(-131.103 -148.478)" fill="#17b8bc"/>
  <path id="Path_1084" data-name="Path 1084" d="M125.113,90.551a34.238,34.238,0,1,0,34.239,34.238,34.271,34.271,0,0,0-34.239-34.238Zm0,63.893a29.655,29.655,0,1,1,29.655-29.655A29.689,29.689,0,0,1,125.113,154.444Zm0,0" transform="translate(-70.146 -69.799)" fill="#17b8bc"/>
  <path id="Path_1085" data-name="Path 1085" d="M102.509,42.384l.756-13.59a2.286,2.286,0,0,0-1.26-2.177L89.9,20.5,83.786,8.4a2.325,2.325,0,0,0-2.177-1.26L68,7.871,56.652.377a2.29,2.29,0,0,0-2.521,0L42.787,7.871,29.2,7.115a2.283,2.283,0,0,0-2.177,1.26l-6.12,12.1L8.8,26.595a2.322,2.322,0,0,0-1.26,2.177L8.3,42.362.8,53.706a2.29,2.29,0,0,0,0,2.521L8.274,67.593l-.756,13.59a2.285,2.285,0,0,0,1.26,2.177l12.1,6.119L27,101.579a2.322,2.322,0,0,0,2.177,1.26l13.59-.756,11.344,7.494a2.231,2.231,0,0,0,2.521,0l11.344-7.494,13.59.756a2.287,2.287,0,0,0,2.177-1.26l6.119-12.1,12.1-6.119a2.325,2.325,0,0,0,1.26-2.177l-.756-13.59,7.494-11.344a2.29,2.29,0,0,0,0-2.521Zm-4.263,23.33a2.152,2.152,0,0,0-.366,1.4l.71,12.856L87.155,85.743a2.262,2.262,0,0,0-1.008,1.009L80.371,98.187l-12.856-.71a2.5,2.5,0,0,0-1.4.366l-10.725,7.082L44.667,97.844a2.269,2.269,0,0,0-1.26-.389h-.115l-12.857.711L24.66,86.729a2.257,2.257,0,0,0-1.009-1.008L12.192,79.968,12.9,67.112a2.5,2.5,0,0,0-.367-1.4L5.455,54.989l7.081-10.725a2.145,2.145,0,0,0,.367-1.4l-.711-12.857,11.436-5.775a2.259,2.259,0,0,0,1.008-1.008L30.412,11.79l12.857.711a2.515,2.515,0,0,0,1.4-.367L55.391,5.052l10.725,7.081a2.149,2.149,0,0,0,1.4.367l12.856-.711,5.776,11.436a2.259,2.259,0,0,0,1.008,1.008L98.59,30.009l-.71,12.857a2.51,2.51,0,0,0,.366,1.4l7.082,10.725Zm0,0" transform="translate(-0.425 0.001)" fill="#17b8bc"/>
</svg>
