<svg id="saudi-arabia" xmlns="http://www.w3.org/2000/svg" width="27.6" height="18.964" viewBox="0 0 27.6 18.964">
  <path id="Path_708" data-name="Path 708" d="M27.6,93.848a2.689,2.689,0,0,1-2.671,2.715H2.671A2.689,2.689,0,0,1,0,93.848V80.316A2.689,2.689,0,0,1,2.671,77.6H24.929A2.689,2.689,0,0,1,27.6,80.316Z" transform="translate(0 -77.6)" fill="#096"/>
  <path id="Path_709" data-name="Path 709" d="M48,77.6H70.258a2.689,2.689,0,0,1,2.671,2.716V93.848a2.689,2.689,0,0,1-2.671,2.715" transform="translate(-45.329 -77.6)" fill="#038e5c"/>
  <g id="Group_621" data-name="Group 621" transform="translate(0 0)">
    <path id="Path_710" data-name="Path 710" d="M27.6,369.6a2.689,2.689,0,0,1-2.671,2.715H2.671A2.689,2.689,0,0,1,0,369.6" transform="translate(0 -353.352)" fill="#007a54"/>
    <path id="Path_711" data-name="Path 711" d="M48,77.6H70.258a2.689,2.689,0,0,1,2.671,2.716v4.941" transform="translate(-45.329 -77.6)" fill="#007a54"/>
  </g>
  <g id="Group_622" data-name="Group 622" transform="translate(2.605 4.016)">
    <path id="Path_712" data-name="Path 712" d="M57.778,150.566c.178-.134.178.223,0,.623a1.094,1.094,0,0,0,.223-.668c-.045-.312-.223-.267-.356-.089C57.555,150.566,57.6,150.655,57.778,150.566Z" transform="translate(-57 -150.264)" fill="#fff"/>
    <path id="Path_713" data-name="Path 713" d="M47.632,152.61c.223-.4.134-.712.312-1.291.134-.356.134-.089.134.134-.089.579-.045,1.514.757,1.469.045.534.178,1.469.178,1.825,0,.312.045.223.134.045a1.58,1.58,0,0,0,.045-.668c0-.267-.045-.757-.089-1.424a1.663,1.663,0,0,0,.267-.312c.089-.223.134-.178.178,0,.089.356.445.579.89.223.445-.312.267-.935.045-1.6.178.044.223-.089.134-.267-.045-.089-.134-.178-.178-.267-.089-.089-.134-.178-.223-.089s-.134.178-.178.223-.045.134,0,.267a5.182,5.182,0,0,1,.312,1.068c.045.223-.045.267-.223.267-.134,0-.356-.044-.445-.4a1.59,1.59,0,0,1-.089-.757.809.809,0,0,0-.134-.623c-.178-.223-.178-.178-.223-.089a1,1,0,0,0-.045.534c.089.312.134.579.178.757a.583.583,0,0,1-.312.534c-.045-.445-.089-.979-.134-1.469.267-.089.134-.4-.089-.757-.134-.267-.223-.178-.312,0a.331.331,0,0,0,.045.4c-.045.134.045.312.089.623a8.7,8.7,0,0,1,.089,1.291.475.475,0,0,1-.4-.312,1.252,1.252,0,0,1-.045-.89c.089-.223.134-.534,0-.623s-.267,0-.356.178a1.883,1.883,0,0,0-.356,1.024,1.371,1.371,0,0,1-.134.579c-.045.134-.178.134-.267-.044a3.244,3.244,0,0,1-.223-1.336c0-.178-.045-.223-.089,0a2.891,2.891,0,0,0,.178,1.736C47.276,152.966,47.5,152.877,47.632,152.61Z" transform="translate(-46.809 -149.771)" fill="#fff"/>
    <path id="Path_714" data-name="Path 714" d="M92.888,150.944c.089-.089.089-.089.134,0a.126.126,0,0,0,.223,0,.273.273,0,0,0,.045-.267c-.045-.089-.045-.045-.089.045-.045.178-.223.134-.223-.089s-.045-.089-.134.045c-.089.223-.223.178-.223-.045,0-.134-.045-.267-.134-.089a.473.473,0,0,0,.045.356C92.665,151.033,92.8,151.033,92.888,150.944Z" transform="translate(-89.928 -150.419)" fill="#fff"/>
    <path id="Path_715" data-name="Path 715" d="M51.879,213.615c.134-.045.134-.045.134-.223s-.089-.089-.267-.044a2.835,2.835,0,0,0-1.2.846c-.178.223-.045.134.089.045A4.665,4.665,0,0,1,51.879,213.615Z" transform="translate(-50.255 -209.751)" fill="#fff"/>
    <path id="Path_716" data-name="Path 716" d="M52.325,248.01c-.134.223-.4-.089-.223-.668a1.132,1.132,0,0,0,.089-.312v-.312c0-.089-.089.045-.134.223a2.8,2.8,0,0,0-.178,1.246c.045.49.623.49.668-.134C52.548,247.787,52.458,247.787,52.325,248.01Z" transform="translate(-51.591 -241.298)" fill="#fff"/>
    <path id="Path_717" data-name="Path 717" d="M69.715,158.013c0-.223-.045-.445-.045-.668.045,0,.045-.045.089-.045.134.4.712.312.89.045.089-.134.089-.134.178,0,.134.178.579.267.668,0a1.34,1.34,0,0,0,.044-.712c-.044-.223-.089-.178-.223-.089s-.044.134,0,.267c.045.534-.4.49-.445-.044-.045-.356-.089-.223-.134-.044-.223.668-.8.8-.712,0,0-.223-.134-.134-.223-.045l-.178.178c-.044-.623-.089-1.335-.178-2.226.178.223.356-.045.223-.267-.089-.178-.223-.623-.312-.846s-.134-.178-.312.044c-.178.178-.134.223-.089.445a4.574,4.574,0,0,0,.089.979c.045.356.134,1.113.223,2.048-.089.045-.223.134-.312.178-.045-.178-.178-.267-.356-.445-.267-.267-.445-.267-.668.044a.778.778,0,0,0-.178.668c0,.267-.045.356.178.445a.51.51,0,0,0,.445,0,2.069,2.069,0,0,1,.4-.134.427.427,0,0,1-.089.4c-.534.623-1.335,1.113-1.692.668a1.413,1.413,0,0,1-.223-1.024c.045-.356-.044-.178-.089-.089a1.962,1.962,0,0,0,0,1.335c.223.445.623.623,1.246.312a1.712,1.712,0,0,0,1.2-1.425v-.312a.972.972,0,0,0,.223-.134v.757a1.169,1.169,0,0,1-.534,1.157,2.759,2.759,0,0,1-1.291.534c-.979.134-1.2-.49-1.2-1.335,0-.134.045-.223.045-.4,0-.356-.045-.312-.178.045a2.913,2.913,0,0,0,.089,1.825c.356.668,1.514.49,2.4.044A1.937,1.937,0,0,0,69.715,158.013Zm-1.246-.668c-.223.089-.312-.045-.267-.178,0-.134.044-.223.223-.134a.756.756,0,0,1,.267.267A.6.6,0,0,1,68.468,157.345Z" transform="translate(-65.019 -153.17)" fill="#fff"/>
    <path id="Path_718" data-name="Path 718" d="M144.875,235.845a.849.849,0,0,0,.089-.579c-.045-.134,0-.178-.134-.267-.134-.045-.178.045-.223.134-.044.134.045.312.223.223a.8.8,0,0,1-.044.445C144.741,235.978,144.786,236.023,144.875,235.845Z" transform="translate(-139.155 -230.245)" fill="#fff"/>
    <path id="Path_719" data-name="Path 719" d="M152.681,183.181c-.178.223-.312.534-.045.712.133.089.4-.044.49-.223.089-.223.045-.267-.134-.045-.223.267-.49.045-.223-.356C152.948,183,152.815,182.959,152.681,183.181Z" transform="translate(-146.605 -181.188)" fill="#fff"/>
    <path id="Path_720" data-name="Path 720" d="M138.32,153.365a2.349,2.349,0,0,0,1.157-.935c.178.045.223-.089.134-.223a2.182,2.182,0,0,1,.134-.312c.134-.579-.445-.623-.579-.178a.463.463,0,0,0,.089.579,3.674,3.674,0,0,1-1.068.935C138.009,153.409,138.053,153.5,138.32,153.365Zm1.068-1.558c.045-.134.134-.045.134.044a.338.338,0,0,1-.089.178C139.344,151.985,139.344,151.9,139.389,151.807Z" transform="translate(-133.001 -151.327)" fill="#fff"/>
  </g>
  <path id="Path_721" data-name="Path 721" d="M156.607,151.718a.463.463,0,0,0,.089.579c-.044.045-.089.134-.134.178l.223.178c.045-.089.134-.134.178-.223.178.045.223-.089.134-.223a2.171,2.171,0,0,1,.134-.312C157.32,151.317,156.786,151.273,156.607,151.718Zm.356.133a.338.338,0,0,1-.089.178c-.089-.044-.089-.134-.044-.223C156.875,151.673,156.964,151.762,156.964,151.851Z" transform="translate(-147.838 -147.311)" fill="#cfe7e8"/>
  <path id="Path_722" data-name="Path 722" d="M125.314,204.019a1.663,1.663,0,0,0-.312.267c0-.178.045-.445.045-.534,0-.134-.045-.178-.134-.044a3.543,3.543,0,0,0-.312.89,12.764,12.764,0,0,1-1.781,1.024c-.223.089-.089.178.089.133a17.51,17.51,0,0,0,1.692-.623c.045.4.178.668.534.757.668.178,1.336-.4,2.092-1.425a2.063,2.063,0,0,0,1.781,1.336c.49.089.445.044.534-.223.045-.223.134-.267-.267-.356-.49-.178-.668-.534-.178-.757a8.169,8.169,0,0,1,1.6-.49c.312-.044.4-.044.49-.312.089-.312.134-.356-.178-.312a22.866,22.866,0,0,1-2.493.045c.356-.178.846-.356,1.2-.49.134.089.178.045.134-.045a1.581,1.581,0,0,0,.4-.178c.4-.223.579-.712.134-1.024s-.8-.4-1.024-.089c-.178.267-.356.534-.089.89-.4.133-.757.267-1.113.4-.267.089-.4.134-.49.49s-.134.356.223.4a1.863,1.863,0,0,1,1.246.267c-.49.178-.846.534-.668,1.024a1.187,1.187,0,0,1-.623-.312c-.356-.356-.356-.979-.49-1.692a6.212,6.212,0,0,0-.579-1.6c-.089-.267-.134-.134-.223.045a.546.546,0,0,0-.089.534,18.544,18.544,0,0,1,.579,1.87,2.645,2.645,0,0,1-1.558,1.469c-.445.089-.579-.178-.534-.4a3.988,3.988,0,0,0,.846-.668,1.566,1.566,0,0,0,.267-1.959q.334.067-.134-.534c-.223-.267-.267-.223-.4.045-.089.223-.178.4.089.49a2.924,2.924,0,0,0,.267.534C126.16,203.44,125.715,203.663,125.314,204.019Zm4.229-1.959c0-.134.045-.134.267,0s.4.178.089.223c-.089.045-.223.045-.312.089A.66.66,0,0,0,129.543,202.06Z" transform="translate(-115.877 -194.403)" fill="#fff"/>
  <g id="Group_623" data-name="Group 623" transform="translate(10.728 6.855)">
    <path id="Path_723" data-name="Path 723" d="M239.47,238.152c-.223,0-1.2.045-1.87.045l.89.757a5.037,5.037,0,0,1,.668-.178c.312-.044.4-.044.49-.312C239.737,238.152,239.781,238.107,239.47,238.152Z" transform="translate(-235.107 -236.06)" fill="#cfe7e8"/>
    <path id="Path_724" data-name="Path 724" d="M192.8,200.8l.089.089C192.889,200.8,192.845,200.8,192.8,200.8Z" transform="translate(-192.8 -200.8)" fill="#cfe7e8"/>
    <path id="Path_725" data-name="Path 725" d="M225.29,203.956c.267-.134.579-.223.8-.312.134.089.178.044.134-.045a1.579,1.579,0,0,0,.4-.178c.4-.223.579-.712.134-1.024s-.8-.4-1.024-.089c-.178.267-.356.534-.089.89a4.735,4.735,0,0,0-.846.312Zm.979-1.113c.223.134.4.178.089.223-.089.045-.223.045-.312.089a.784.784,0,0,1-.044-.267C225.957,202.71,226.046,202.71,226.269,202.843Z" transform="translate(-223.019 -202.042)" fill="#cfe7e8"/>
  </g>
  <path id="Path_726" data-name="Path 726" d="M253.235,266.782a2.324,2.324,0,0,0,.534-.312c.178-.178.045-.134-.089-.089a4.645,4.645,0,0,1-.445.178c-.178.089-.223,0-.134-.312.089-.267,0-.267-.134-.223s-.178.134-.312.223c-.089.045-.089.134.134.045.178-.089.134,0,.089.223C252.79,266.738,252.923,266.871,253.235,266.782Z" transform="translate(-238.544 -255.52)" fill="#fff"/>
  <g id="Group_624" data-name="Group 624" transform="translate(9.606 3.919)">
    <path id="Path_727" data-name="Path 727" d="M173.572,150.515c.134-.312.223-.623.312-.846s.178-.178.134.045c-.045.4-.045,1.024.356,1.291.4.223,1.024-.178,1.246-.623.668.846,1.246.445,1.291-.356a3.2,3.2,0,0,0-.178-.979c-.089-.178,0-.178.089-.089s.267.178.178-.134a1.433,1.433,0,0,0-.356-.579c-.134-.133-.178-.045-.223.045a.593.593,0,0,1-.134.223c-.089.089-.045.134,0,.267.267.623.49,1.558.089,1.647-.356.089-.579-.712-.579-1.068a3.628,3.628,0,0,0-.178-1.113c-.089-.267-.134-.267-.223-.133-.045.089-.045.178-.134.267-.044.089,0,.134.045.312.223,1.024.178,1.469-.267,1.736s-.712,0-.712-.312a6.894,6.894,0,0,1,.045-.979c.045-.267.089-.356,0-.49s-.178-.089-.312.089a6.431,6.431,0,0,0-.668,1.38c-.089.312-.312.223-.445-.045a2.094,2.094,0,0,1-.089-1.157c.045-.223.045-.312-.089-.089a1.64,1.64,0,0,0,.267,1.781C173.26,151,173.438,150.827,173.572,150.515Z" transform="translate(-172.627 -148.024)" fill="#cfe7e8"/>
    <path id="Path_728" data-name="Path 728" d="M207.845,153.85c0,.134,0,.312.089.045a1.784,1.784,0,0,0-.044-.846c-.089-.223-.134-.267-.223-.178s-.089.134,0,.223A1.19,1.19,0,0,1,207.845,153.85Z" transform="translate(-205.654 -152.56)" fill="#cfe7e8"/>
    <path id="Path_729" data-name="Path 729" d="M217.171,205.424c0,.356-.089.356-.223,0-.045-.133-.089-.133-.134.045,0,.312-.134.356-.223.044-.045-.134-.045-.267-.089-.044a.517.517,0,0,0,.089.445c.089.089.223.089.267-.045s.089-.134.178-.044.445,0,.267-.49C217.216,205.157,217.171,205.2,217.171,205.424Z" transform="translate(-214.046 -202.043)" fill="#cfe7e8"/>
    <path id="Path_730" data-name="Path 730" d="M292.17,151.5a.593.593,0,0,1,.223.579c-.045.223,0,.356.134.044a1.021,1.021,0,0,0-.089-.89c-.134-.223-.178-.134-.267-.045C292.081,151.318,292.036,151.452,292.17,151.5Z" transform="translate(-285.438 -150.919)" fill="#cfe7e8"/>
    <path id="Path_731" data-name="Path 731" d="M251.289,150.278c0,.134.044.223.223.267.356.49.757,1.024,1.113,1.514.044.445.134.89.178,1.291a11.2,11.2,0,0,1,.133,2.626c-.089.4,0,.534.178-.044a4.237,4.237,0,0,0,.045-2c-.045-.356-.045-.757-.089-1.2a16.543,16.543,0,0,1,1.38,2.448c.134.356.267.4.134-.044a11.181,11.181,0,0,0-1.6-3.027,7.89,7.89,0,0,1-.045-.979c.134.134.223.045.178-.134a8.657,8.657,0,0,0-.356-.979c-.044-.178-.223-.178-.312.044-.089.267-.089.312,0,.49a6.853,6.853,0,0,0,.089.846,7.873,7.873,0,0,0-.534-.757c.223.089.4.045.178-.223-.223-.223-.534-.49-.712-.668s-.267-.044-.267.089C251.289,150.055,251.334,150.144,251.289,150.278Z" transform="translate(-246.828 -149.567)" fill="#cfe7e8"/>
    <path id="Path_732" data-name="Path 732" d="M293.867,178.955c-.045.223-.134.134-.178-.044-.045-.089-.089-.045-.089.134.044.178.089.312.223.178.089-.089.089-.089.223,0,.089.089.178,0,.223-.045a.825.825,0,0,0,0-.356c-.044-.223-.089-.089-.134.089s-.134.223-.178,0C293.956,178.732,293.867,178.777,293.867,178.955Z" transform="translate(-286.868 -176.997)" fill="#cfe7e8"/>
    <path id="Path_733" data-name="Path 733" d="M287.426,157.076c.045.8.134,1.157-.356,1.736a2.312,2.312,0,0,1-1.113.8c-.312.089-.4.223.044.178.668-.045.757-.045,1.336-.712.312-.356.445-.8.445-1.87-.045-1.87-.267-2.671-.267-3.695.089.089.223.089.178-.089a4.162,4.162,0,0,1-.178-.712c-.089-.223-.134-.312-.223-.178s-.178.178-.223.267a.339.339,0,0,0,0,.356C287.337,155.34,287.382,156.274,287.426,157.076Z" transform="translate(-279.404 -152.225)" fill="#cfe7e8"/>
    <path id="Path_734" data-name="Path 734" d="M327.651,157.129a3.144,3.144,0,0,1,0,1.291c-.044.134.045.223.134,0a2.752,2.752,0,0,0,.089-1.87c-.044-.668-.312-2.4-.356-3.116l.044.044c.178.089.4.178.267-.089a5.3,5.3,0,0,1-.356-.89c-.089-.267-.134-.267-.267-.045-.267.356-.089.712,0,1.158C327.384,155.126,327.607,156.684,327.651,157.129Z" transform="translate(-318.471 -152.056)" fill="#cfe7e8"/>
    <path id="Path_735" data-name="Path 735" d="M350.623,184.579a3.315,3.315,0,0,1,.312.534c.089.223.178.045.178-.089a3.344,3.344,0,0,1,0-.668c.089-.223.223.089.267-.044.045-.089-.044-.134-.089-.223-.044-.134-.089-.089-.178-.044a.407.407,0,0,0-.134.223v.49c0,.178-.045.178-.089.089a2,2,0,0,0-.267-.534.125.125,0,0,0-.223.089v.223C350.4,184.712,350.578,184.712,350.623,184.579Z" transform="translate(-340.508 -181.998)" fill="#cfe7e8"/>
    <path id="Path_736" data-name="Path 736" d="M352.8,209.034c0,.134.178-.044.312-.134s.534-.356.712-.445.133-.134.089-.312c0-.178-.134-.045-.267.089s-.534.4-.668.534S352.8,208.945,352.8,209.034Z" transform="translate(-342.774 -204.717)" fill="#cfe7e8"/>
    <path id="Path_737" data-name="Path 737" d="M328.469,156.319a2.171,2.171,0,0,1-.178-1.024c0-.267-.045-.49-.133-.044-.267,1.068-.089,1.291.178,1.514.356.312.49.356.668.044.356-.534.49-.979.668-1.246.178-.223.178-.045.267.045a.981.981,0,0,0,.712.4c.312.044.846-.223.8-1.2-.044-.623-.089-1.425-.134-2.315.312.4.534.757.757,1.068a10.472,10.472,0,0,1,.133,1.514c-.045.49.089.49.178,0a4.444,4.444,0,0,0,0-1.113,8.183,8.183,0,0,1,.757,1.113c.178.312.267.534.223-.045,0-.223-.089-.4-.356-.8-.267-.356-.49-.712-.712-1.068-.089-.846-.178-1.781-.178-2.27.134.089.223,0,.134-.178a6.771,6.771,0,0,0-.267-.89c-.089-.178-.178-.178-.267.044-.089.178-.178.267-.134.4a18.159,18.159,0,0,0,.267,2.359c-.223-.312-.445-.623-.623-.89,0-.312-.044-.623-.044-.935.133.089.178.089.133-.134a5.938,5.938,0,0,0-.312-.8c-.089-.178-.134-.178-.223-.044a.538.538,0,0,0-.044.623c0,.223.044.4.044.623a4.65,4.65,0,0,0-.356-.49c.134.044.223-.044.089-.178s-.4-.356-.534-.49c-.134-.178-.223-.134-.223,0v.4a.7.7,0,0,0,.134.445c.312.4.668.8.935,1.2.133,1.425.178,2.359.178,2.938,0,.356-.134.534-.312.579s-.356-.045-.534-.312c-.312-.445-.445-.356-.668.044s-.4.712-.534.979C328.87,156.453,328.647,156.676,328.469,156.319Z" transform="translate(-319.378 -149.599)" fill="#cfe7e8"/>
    <path id="Path_738" data-name="Path 738" d="M408.725,160.822c0,.267.089.223.134,0a1.727,1.727,0,0,0-.089-.935c-.134-.312-.178-.178-.223-.089-.089.134-.089.178.044.312A2.532,2.532,0,0,1,408.725,160.822Z" transform="translate(-395.361 -159.043)" fill="#cfe7e8"/>
    <path id="Path_739" data-name="Path 739" d="M402.568,154.516c-.089-1.87-.312-2.671-.267-3.383q.267.2.134-.134c-.089-.223-.223-.49-.312-.757-.089-.223-.133-.178-.267,0a.376.376,0,0,0-.089.4c.267,2.27.4,3.472.445,4.184a2.186,2.186,0,0,1-1.157,2.226c-.311.223-.668.445.089.267C401.856,157.1,402.657,156.608,402.568,154.516Z" transform="translate(-388.002 -149.977)" fill="#cfe7e8"/>
    <path id="Path_740" data-name="Path 740" d="M389.04,262.992c-.134.178.178.267.223.133.089.134,0,.356-.134.49-.223.178-.089.223.045.089.134-.089.49-.49.267-.757A.282.282,0,0,0,389.04,262.992Z" transform="translate(-376.966 -256.494)" fill="#cfe7e8"/>
  </g>
  <path id="Path_741" data-name="Path 741" d="M112.114,312.434c-.579,0-1.113,0-1.692.045V312.3c.178-.223.134-.223,0-.445-.045-.089-.089-.178-.223,0s-.134.222.044.445v.178c-4.407.045-9.259,0-13.444-.045.445.757,1.959.712,3.339.712,1.246,0,4.986,0,10.061-.134v.223c-.178.223-.134.223,0,.445.134.178.178.089.223,0a.138.138,0,0,0,.045-.089h.668c0,.089.134.134.178.134s.178-.044.178-.134h.757a.336.336,0,0,0,.312.178c.267,0,.4-.312.356-.712C112.87,312.478,112.648,312.39,112.114,312.434Zm-.623.89c0-.089-.134-.134-.178-.134s-.178.044-.178.134h-.668c0-.044-.045-.089-.134-.178v-.223c.579,0,1.2-.045,1.825-.045a1.233,1.233,0,0,0-.044.4Z" transform="translate(-91.414 -298.723)" fill="#fff"/>
  <path id="Path_742" data-name="Path 742" d="M337.9,312.434c-.579,0-1.113,0-1.692.045V312.3c.178-.223.134-.223,0-.445-.045-.089-.089-.178-.223,0s-.134.222.044.445v.178h-.044l.623.534c.445,0,.935-.044,1.38-.044a1.232,1.232,0,0,0-.045.4h-.668c0-.089-.134-.134-.178-.134s-.134.045-.134.089l.312.267v-.044h.757a.336.336,0,0,0,.312.178c.267,0,.4-.312.356-.712C338.655,312.478,338.433,312.39,337.9,312.434Z" transform="translate(-317.199 -298.723)" fill="#cfe7e8"/>
</svg>
