<svg id="Send_24Hr" data-name="Send 24Hr" xmlns="http://www.w3.org/2000/svg" width="109.095" height="116.874" viewBox="0 0 109.095 116.874">
  <path id="Path_749" data-name="Path 749" d="M49.013,38H13.948A1.948,1.948,0,0,0,12,39.948V63.325a1.948,1.948,0,0,0,1.948,1.948H49.013a1.948,1.948,0,0,0,1.948-1.948V39.948A1.948,1.948,0,0,0,49.013,38ZM47.065,61.377H15.9V41.9H47.065Z" transform="translate(-0.312 32.131)" fill="#17b8bc"/>
  <path id="Path_750" data-name="Path 750" d="M22.948,45.9h9.74a1.948,1.948,0,0,0,0-3.9h-9.74a1.948,1.948,0,1,0,0,3.9Z" transform="translate(8.221 35.923)" fill="#17b8bc"/>
  <path id="Path_751" data-name="Path 751" d="M22.948,49.9h9.74a1.948,1.948,0,0,0,0-3.9h-9.74a1.948,1.948,0,0,0,0,3.9Z" transform="translate(8.221 39.715)" fill="#17b8bc"/>
  <path id="Path_752" data-name="Path 752" d="M17.948,45.9H19.9a1.948,1.948,0,0,0,0-3.9H17.948a1.948,1.948,0,1,0,0,3.9Z" transform="translate(3.481 35.923)" fill="#17b8bc"/>
  <path id="Path_753" data-name="Path 753" d="M17.948,49.9H19.9a1.948,1.948,0,0,0,0-3.9H17.948a1.948,1.948,0,0,0,0,3.9Z" transform="translate(3.481 39.715)" fill="#17b8bc"/>
  <path id="Path_754" data-name="Path 754" d="M47.844,45A5.844,5.844,0,0,0,42,50.844a1.948,1.948,0,1,0,3.9,0,1.948,1.948,0,0,1,3.9,0v1.488a1.936,1.936,0,0,1-1.077,1.742L45.23,55.818A5.811,5.811,0,0,0,42,61.044v1.488a1.948,1.948,0,0,0,1.948,1.948H51.74a1.948,1.948,0,1,0,0-3.9h-5.79A1.931,1.931,0,0,1,46.973,59.3l3.485-1.744a5.811,5.811,0,0,0,3.23-5.227V50.844A5.844,5.844,0,0,0,47.844,45Z" transform="translate(28.131 38.767)" fill="#17b8bc"/>
  <path id="Path_755" data-name="Path 755" d="M63.584,56.688H61.636v-9.74A1.948,1.948,0,0,0,58.192,45.7l-9.74,11.688a1.948,1.948,0,0,0,1.5,3.195H57.74v1.948a1.948,1.948,0,1,0,3.9,0V60.584h1.948a1.948,1.948,0,0,0,0-3.9Zm-5.844,0H54.107l3.633-4.36Z" transform="translate(33.82 38.768)" fill="#17b8bc"/>
  <path id="Path_756" data-name="Path 756" d="M114.229,87A25.152,25.152,0,0,0,107.3,75.316V27.325a1.948,1.948,0,0,0-.195-.871L95.417,3.077A1.948,1.948,0,0,0,93.663,2H19.637a1.948,1.948,0,0,0-1.744,1.077L6.2,26.454a1.948,1.948,0,0,0-.2.871v81.819a1.948,1.948,0,0,0,1.948,1.948h63.57A25.315,25.315,0,0,0,114.229,87ZM102.2,25.377H69.988L66.741,5.9H92.456Zm-55.29,3.9H66.39V54.842l-8.572-5.758a1.948,1.948,0,0,0-2.162,0L46.91,54.867ZM62.792,5.9l3.246,19.481H47.262L50.508,5.9ZM20.84,5.9H46.555L43.312,25.377H11.1Zm87.484,98.378a21.429,21.429,0,0,1-39.618-14.7,1.948,1.948,0,1,0-3.828-.725A25.311,25.311,0,0,0,68.444,107.2H9.9V29.273H43.013V58.494a1.948,1.948,0,0,0,3.023,1.623L56.718,53.04l10.535,7.07a1.948,1.948,0,0,0,3.033-1.615V29.273H103.4V72.255c-.325-.208-.637-.432-.974-.627a25.29,25.29,0,0,0-31.288,4.788l-.247-4.075a1.952,1.952,0,0,0-3.9.238l.584,9.409a1.948,1.948,0,0,0,2.449,1.763l9.411-2.519a1.948,1.948,0,0,0-1.007-3.764l-3.9,1.044a21.429,21.429,0,0,1,33.785,25.761Z" transform="translate(-6 -2)" fill="#17b8bc"/>
</svg>
