<svg id="Group_1435" data-name="Group 1435" xmlns="http://www.w3.org/2000/svg" width="77.091" height="103.326" viewBox="0 0 77.091 103.326">
  <path id="Path_743" data-name="Path 743" d="M151.409,296.845a1.848,1.848,0,0,0,2.259-.279l10.25-10.236a1.852,1.852,0,0,0-.36-2.9l-5.308-3.168,2.125-7.092a1.852,1.852,0,0,0-3.083-1.842l-10.25,10.236a1.852,1.852,0,0,0,.36,2.9l5.308,3.168-2.125,7.092A1.849,1.849,0,0,0,151.409,296.845ZM150.25,282.64l5.89-5.882-1.053,3.513a1.85,1.85,0,0,0,.825,2.122l4.8,2.864-5.889,5.882,1.052-3.514a1.849,1.849,0,0,0-.825-2.121Zm0,0" transform="translate(-116.934 -216.141)" fill="#17b8bc"/>
  <path id="Path_745" data-name="Path 745" d="M75.578,0H1.514A1.514,1.514,0,0,0,0,1.514V6.256a1.514,1.514,0,1,0,3.027,0V3.027H74.064V56H66.5a1.514,1.514,0,1,0,0,3.027h7.568v2.724H66.5a1.514,1.514,0,1,0,0,3.027h7.568v2.724H66.5a1.514,1.514,0,1,0,0,3.027h7.568v2.724H66.5a1.514,1.514,0,1,0,0,3.027h7.568v8.678H64.276a1.514,1.514,0,1,0,0,3.027h9.788v6.054H3.027V87.989H57.869a1.514,1.514,0,0,0,0-3.027H3.027V76.284h7.568a1.514,1.514,0,0,0,0-3.027H3.027V70.532h7.568a1.514,1.514,0,0,0,0-3.027H3.027V64.781h7.568a1.514,1.514,0,0,0,0-3.027H3.027V59.029h7.568a1.514,1.514,0,0,0,0-3.027H3.027V23.376a1.514,1.514,0,1,0-3.027,0V95.557A1.514,1.514,0,0,0,1.514,97.07H6.307v4.743a1.514,1.514,0,0,0,1.514,1.514H19.727a1.514,1.514,0,0,0,1.514-1.514V97.07h34.61v4.743a1.514,1.514,0,0,0,1.514,1.514H69.271a1.514,1.514,0,0,0,1.514-1.514V97.07h4.793a1.514,1.514,0,0,0,1.514-1.514V1.514A1.514,1.514,0,0,0,75.578,0ZM18.213,100.3H9.334V97.07h8.88Zm49.544,0h-8.88V97.07h8.88Zm0,0" fill="#17b8bc"/>
  <path id="Path_746" data-name="Path 746" d="M127.485,47.128A3.132,3.132,0,0,0,124.357,44H87.628A3.132,3.132,0,0,0,84.5,47.128V67.713a3.132,3.132,0,0,0,3.128,3.128h36.729a3.132,3.132,0,0,0,3.128-3.128Zm-3.027,20.585a.1.1,0,0,1-.1.1H87.628a.1.1,0,0,1-.1-.1V47.128a.1.1,0,0,1,.1-.1h36.729a.1.1,0,0,1,.1.1Zm0,0" transform="translate(-67.447 -35.119)" fill="#17b8bc"/>
  <path id="Path_747" data-name="Path 747" d="M84.5,203.673a3.132,3.132,0,0,0,3.128,3.128H100.14a3.132,3.132,0,0,0,3.128-3.128v-5.045a3.132,3.132,0,0,0-3.128-3.128H87.628a3.132,3.132,0,0,0-3.128,3.128Zm3.027-5.045a.1.1,0,0,1,.1-.1H100.14a.1.1,0,0,1,.1.1v5.045a.1.1,0,0,1-.1.1H87.628a.1.1,0,0,1-.1-.1Zm0,0" transform="translate(-67.447 -156.044)" fill="#17b8bc"/>
  <path id="Path_748" data-name="Path 748" d="M223.268,203.673v-5.045a3.132,3.132,0,0,0-3.128-3.128H207.628a3.132,3.132,0,0,0-3.128,3.128v5.045a3.131,3.131,0,0,0,3.128,3.128H220.14A3.131,3.131,0,0,0,223.268,203.673Zm-15.741,0v-5.045a.1.1,0,0,1,.1-.1H220.14a.1.1,0,0,1,.1.1v5.045a.1.1,0,0,1-.1.1H207.628A.1.1,0,0,1,207.527,203.673Zm0,0" transform="translate(-163.23 -156.044)" fill="#17b8bc"/>
</svg>
