<svg xmlns="http://www.w3.org/2000/svg" width="45.504" height="45.504" viewBox="0 0 45.504 45.504">
  <path id="insurance" d="M41.5,15.287a4,4,0,0,0-4,4v5.44l-2.888,2.888a4.007,4.007,0,0,0-6.434-1.129l-.366.361V24h.267a1.333,1.333,0,0,0,1.333-1.333v-8a6.664,6.664,0,0,0-2.938-5.523,5.333,5.333,0,1,0-7.455,0,6.664,6.664,0,0,0-2.938,5.523v8A1.333,1.333,0,0,0,17.419,24h.267v2.85l-.364-.359a4.007,4.007,0,0,0-6.435,1.127L8,24.726v-5.44a4,4,0,0,0-8,0V29.951a1.333,1.333,0,0,0,.391.943l9.386,9.386v3.886A1.333,1.333,0,0,0,11.109,45.5l11.643.005h0L34.4,45.5a1.333,1.333,0,0,0,1.333-1.333V40.279l9.386-9.386a1.333,1.333,0,0,0,.391-.943V19.286a4,4,0,0,0-4-4ZM20.086,5.333A2.666,2.666,0,1,1,22.752,8,2.669,2.669,0,0,1,20.086,5.333Zm-1.333,9.332a4,4,0,0,1,8,0V21.33h-8ZM20.352,24h4.8v5.476l-2.4,2.363-2.4-2.363Zm-8.3,14.788L2.666,29.4V19.286a1.333,1.333,0,0,1,2.666,0v5.992a1.333,1.333,0,0,0,.391.943l5.937,5.937.011.011,4.394,4.394a1.356,1.356,0,0,0,.1.092,1.333,1.333,0,0,0,1.784-1.977l-4.394-4.394h0l0,0a1.341,1.341,0,0,1,1.895-1.9L18,30.9c.027.032.055.063.085.092l3.334,3.276v8.572l-8.976,0V39.727a1.333,1.333,0,0,0-.391-.943ZM42.838,29.4l-9.386,9.386a1.333,1.333,0,0,0-.391.943v3.106l-8.976,0V34.266l3.334-3.276c.03-.03.058-.061.085-.092l2.552-2.514a1.341,1.341,0,0,1,1.9,1.894l-4.4,4.4a1.333,1.333,0,1,0,1.885,1.885l4.394-4.394,5.948-5.948a1.333,1.333,0,0,0,.391-.943V19.286a1.333,1.333,0,1,1,2.666,0Z" transform="translate(0 0)" fill="#18212e"/>
</svg>
