<svg id="smartphone" xmlns="http://www.w3.org/2000/svg" width="28.034" height="45.452" viewBox="0 0 28.034 45.452">
  <path id="Path_1068" data-name="Path 1068" d="M211.706,26.4a.666.666,0,0,0,.666.666h4.458a.666.666,0,0,0,0-1.332h-4.458A.666.666,0,0,0,211.706,26.4Z" transform="translate(-201.621 -23.446)" fill="#17b8bc"/>
  <path id="Path_1069" data-name="Path 1069" d="M225.347,443.942a2.048,2.048,0,1,0-2.048,2.048A2.05,2.05,0,0,0,225.347,443.942Zm-2.764,0a.716.716,0,1,1,.716.716A.717.717,0,0,1,222.584,443.942Z" transform="translate(-210.32 -402.666)" fill="#17b8bc"/>
  <path id="Path_1070" data-name="Path 1070" d="M271.334,87.754h8.39a.666.666,0,0,0,0-1.332h-8.39a.666.666,0,1,0,0,1.332Z" transform="translate(-255.349 -78.75)" fill="#17b8bc"/>
  <path id="Path_1071" data-name="Path 1071" d="M271.334,117.354h8.39a.666.666,0,0,0,0-1.332h-8.39a.666.666,0,1,0,0,1.332Z" transform="translate(-255.349 -105.722)" fill="#17b8bc"/>
  <path id="Path_1072" data-name="Path 1072" d="M280.39,146.289a.666.666,0,0,0-.666-.666h-8.39a.666.666,0,1,0,0,1.332h8.39A.666.666,0,0,0,280.39,146.289Z" transform="translate(-255.349 -132.696)" fill="#17b8bc"/>
  <path id="Path_1073" data-name="Path 1073" d="M109.588,0H101.8A3.7,3.7,0,0,0,98.1,3.692V41.76a3.7,3.7,0,0,0,3.692,3.692H120.37a3.7,3.7,0,0,0,3.692-3.692V17.278a2.521,2.521,0,0,0,2.075-2.478V7.106a2.521,2.521,0,0,0-2.075-2.477V3.692A3.7,3.7,0,0,0,120.37,0h-7.676a.666.666,0,1,0,0,1.332h7.676a2.363,2.363,0,0,1,2.361,2.361v.9H101.8a.936.936,0,0,0-.935.935V37.7a.936.936,0,0,0,.935.935H120.37a.936.936,0,0,0,.935-.935V28.686a.666.666,0,0,0-1.332,0v8.62H102.192V9.376h8.283V14.8c0,.065,0,.129.008.193a7.341,7.341,0,1,0,5.987,2.324h3.158c-.073.133-.021.048-1.075,1.7a.986.986,0,0,0,1.237,1.428l.183-.082v5.211a.666.666,0,0,0,1.332,0V19.751a5.582,5.582,0,0,0,1.426-1.1V41.76a2.363,2.363,0,0,1-2.361,2.361H101.8a2.363,2.363,0,0,1-2.361-2.361V3.692A2.363,2.363,0,0,1,101.8,1.332h7.792a.666.666,0,0,0,0-1.332Zm-5.265,8.045h-2.131V5.921h2.131Zm6.152-.938v.938h-4.821V5.921h5.118A2.534,2.534,0,0,0,110.475,7.106Zm4.213,20.018a6,6,0,0,1-7.211,0V25.557a1.473,1.473,0,0,1,1.472-1.472h4.268a1.473,1.473,0,0,1,1.472,1.472Zm-5.382-6.147a1.777,1.777,0,1,1,1.777,1.777A1.779,1.779,0,0,1,109.306,20.977Zm7.792,1.336a5.979,5.979,0,0,1-1.078,3.43v-.186a2.807,2.807,0,0,0-2.409-2.775,3.108,3.108,0,1,0-5.056,0,2.807,2.807,0,0,0-2.409,2.775v.186a6.01,6.01,0,0,1,4.826-9.443,2.522,2.522,0,0,0,2.021,1.018h1.439a5.984,5.984,0,0,1,2.667,5Zm5.367-5.6a4.243,4.243,0,0,1-2.166,2.052,6.893,6.893,0,0,0,.787-1.433.993.993,0,0,0-.928-1.342h-7.164a1.2,1.2,0,0,1-1.186-1.186V7.106a1.187,1.187,0,0,1,1.186-1.186H123.62a1.187,1.187,0,0,1,1.186,1.186V14.8a1.187,1.187,0,0,1-1.186,1.186A1.3,1.3,0,0,0,122.465,16.709Z" transform="translate(-98.103)" fill="#17b8bc"/>
</svg>
