<svg xmlns="http://www.w3.org/2000/svg" width="23.28" height="19.4" viewBox="0 0 23.28 19.4"><g transform="translate(0 -2)"><path d="M14.79,6.365a.97.97,0,0,1-.97-.97V3.94H9.94V5.395a.97.97,0,0,1-1.94,0V3.94A1.942,1.942,0,0,1,9.94,2h3.88a1.942,1.942,0,0,1,1.94,1.94V5.395A.97.97,0,0,1,14.79,6.365Z" transform="translate(-0.24)" fill="#f7797d"/><path d="M12.329,15.267a2,2,0,0,1-.689.116,2.125,2.125,0,0,1-.747-.136L0,11.62v7.4a2.666,2.666,0,0,0,2.667,2.667H20.612a2.666,2.666,0,0,0,2.667-2.667v-7.4Z" transform="translate(0 -0.289)" fill="#f7797d"/><path d="M23.28,7.667V9.889l-11.407,3.8a.718.718,0,0,1-.466,0L0,9.889V7.667A2.666,2.666,0,0,1,2.667,5H20.612A2.666,2.666,0,0,1,23.28,7.667Z" transform="translate(0 -0.09)" fill="#f7797d"/></g></svg>