<svg xmlns="http://www.w3.org/2000/svg" width="112.179" height="118.486" viewBox="0 0 112.179 118.486">
  <path id="waiter" d="M123.052,48.2H104.966v-9a10.229,10.229,0,0,0,8.479-10.064v-11.4A2.45,2.45,0,0,0,111,15.3H95.464a2.45,2.45,0,0,0-2.447,2.447v11.4A10.229,10.229,0,0,0,101.5,39.2v9H83.41a2.758,2.758,0,0,0-2.755,2.755v2.1a5.829,5.829,0,0,0,5.823,5.822H92.9v2.8a4.92,4.92,0,0,0,1.217,3.251l-.946,2.609a2.888,2.888,0,0,0-3.516,1.793L85.082,81.949l-2.661-7.841A21.419,21.419,0,0,0,70.03,61.065l-8.546-3.4V51.279a15.611,15.611,0,0,0,5-5.095,12.38,12.38,0,0,0,.969-3.618H70a5.982,5.982,0,0,0,4.634-9.771c2.316-6.2,3.309-10.68,2.945-13.329a8.565,8.565,0,0,0-3.617-5.632,13.107,13.107,0,0,0-4.131-2.073C66.289,6.929,56.222.411,46.587,0a2.351,2.351,0,0,0-2.095,3.582c.43.7.774,1.284,1.051,1.777-3.9-1.039-10.736-2.174-17.264.125a2.355,2.355,0,0,0-.994,3.766c1.723,1.977,3.582,3.81,4.708,4.882a20.841,20.841,0,0,0-.65,18.912,5.982,5.982,0,0,0,4.827,9.519h2.549a12.414,12.414,0,0,0,.972,3.617,15.6,15.6,0,0,0,5,5.1V57.2c-6.354.667-12.547,5.015-18.877,13.235a1.736,1.736,0,1,0,2.75,2.118,45.077,45.077,0,0,1,7.214-7.629l2.368,13.654a10.115,10.115,0,0,1-2.117,8.077H33.657V81.689a1.736,1.736,0,1,0-3.471,0v4.974a6.593,6.593,0,0,0-6.325,6.579v6.743a7.5,7.5,0,0,1-6.762-7.46,7.939,7.939,0,0,1,1.261-4.163c.578-.929,4.206-7,5.561-9.126A1.736,1.736,0,1,0,21,77.369c-1.383,2.165-2.622,4.239-3.714,6.068-.673,1.127-1.308,2.191-1.87,3.094a11.4,11.4,0,0,0-1.784,6,10.978,10.978,0,0,0,10.233,10.94v2.049a1.736,1.736,0,0,0,3.471,0V93.242a3.118,3.118,0,0,1,3.115-3.115H48.874v24.888H43.792v-8.461a1.736,1.736,0,0,0-3.471,0v8.461H35.886v-3.363a1.736,1.736,0,0,0-3.471,0v3.363H27.333v-1.4a1.736,1.736,0,1,0-3.471,0v2.662a2.212,2.212,0,0,0,2.21,2.21h47a2.925,2.925,0,0,0,2.923-2.921V105.3a10.978,10.978,0,0,0,9.625,5.744,10.911,10.911,0,0,0,10.253-7.2l5.7-15.721a1.736,1.736,0,1,0-3.263-1.183l-5.7,15.721a7.448,7.448,0,0,1-13.971.089l-2.643-7.012V92.329c0-.012,0-.023,0-.035V81.689a1.736,1.736,0,1,0-3.471,0v7.134l-.68-.518a10.042,10.042,0,0,1-3.812-9.726l2.347-13.542a17.946,17.946,0,0,1,8.758,10.186l4.056,11.949L81.707,91.26a1.736,1.736,0,1,0,3.263,1.183l6.309-17.4,0-.007,1.441-3.974L102.746,74.7l-1.679,4.627a1.736,1.736,0,0,0,3.263,1.184l1.877-5.172a2.886,2.886,0,0,0-1.552-3.629l1.839-5.074H107.8a6.991,6.991,0,0,0,6.984-6.982v-.764h5.2a5.829,5.829,0,0,0,5.822-5.823v-2.1a2.758,2.758,0,0,0-2.755-2.755ZM109.974,18.768v6.507H96.488V18.768ZM96.488,29.141v-.394h13.486v.394a6.743,6.743,0,1,1-13.486,0ZM70,39.094H67.8c.1-1.607.144-3.324.149-5.029H70a2.514,2.514,0,1,1,0,5.029ZM31.069,8.267c6.811-1.727,13.75.4,15.836,1.143A2.349,2.349,0,0,0,49.88,6.331a21.021,21.021,0,0,0-1.305-2.66c8.132,1.166,16.314,6.752,18.745,10.555A1.735,1.735,0,0,0,68.463,15c1.735.325,5.3,2.163,5.681,4.94.261,1.9-.638,5.816-2.482,10.892A5.964,5.964,0,0,0,70,30.594H67.911c-.082-3.4-.275-6.381-.4-7.8a4.673,4.673,0,0,0-4.684-4.284H57.547A1.735,1.735,0,0,0,56.34,19a31.124,31.124,0,0,1-16.574,8.3,1.736,1.736,0,0,0-1.461,1.653c-.018.512-.035,1.065-.049,1.646H36.171a5.959,5.959,0,0,0-1.975.336,17.534,17.534,0,0,1,1.428-16.11,1.736,1.736,0,0,0-.255-2.284c-.025-.022-2.13-1.934-4.3-4.27Zm5.1,30.828a2.512,2.512,0,0,1-1.623-4.431l.005,0a2.5,2.5,0,0,1,1.617-.592h2.048c.005,1.658.047,3.387.151,5.029h-2.2Zm6.61,5.5a12.511,12.511,0,0,1-.8-3.825,1.768,1.768,0,0,0-.022-.228,80.542,80.542,0,0,1-.263-8.182c0-.011,0-.022,0-.033s0-.013,0-.019q.01-.9.034-1.846a34.692,34.692,0,0,0,16.506-8.486h4.587A1.221,1.221,0,0,1,64.052,23.1c.283,3.186.419,6.224.448,8.968a1.744,1.744,0,0,0-.022.264,1.726,1.726,0,0,0,.027.3C64.538,38.8,64.019,43.387,63.4,44.6a13.472,13.472,0,0,1-4.575,4.267l-.049.03c-2.024,1.268-4.229,2.2-5.686,2.2C50.152,51.091,44.18,47.33,42.781,44.6Zm10.307,9.964a12.541,12.541,0,0,0,4.925-1.308v5.591a1.731,1.731,0,0,0,.56,1.271l-.732,1.9a8,8,0,0,1-9.55-.031l-.713-1.842a1.73,1.73,0,0,0,.589-1.3v-5.59a12.536,12.536,0,0,0,4.922,1.307ZM56.07,66.616l-2.986,7.757-3.006-7.765a10.754,10.754,0,0,0,5.992.008ZM57.492,91.3h1.865a3.56,3.56,0,0,1,3.556,3.556v1.127a3.56,3.56,0,0,1-3.556,3.556H52.346V87.853a.235.235,0,0,1,.235-.235H55.65a.106.106,0,0,1,.106.106v1.842A1.736,1.736,0,0,0,57.492,91.3Zm12.243-.237,2.786,2.123v2.86c0,.013,0,.025,0,.037s0,.01,0,.016v18.915H52.346v-12h7.011a7.036,7.036,0,0,0,7.028-7.028V94.858a7.035,7.035,0,0,0-7.028-7.027h-.13v-.106a3.581,3.581,0,0,0-3.577-3.577H52.581a3.71,3.71,0,0,0-3.5,2.509h-8.9a13.6,13.6,0,0,0,1.4-8.671L38.927,62.75A16.1,16.1,0,0,1,44.1,60.792l6.283,16.231a2.874,2.874,0,0,0,2.7,1.848h0a2.874,2.874,0,0,0,2.7-1.853l5.969-15.507,5.34,2.123L64.607,77.986A13.5,13.5,0,0,0,69.734,91.065Zm41.578-31.416a3.516,3.516,0,0,1-3.513,3.51h-2.522a1.736,1.736,0,0,0-1.632,1.144l-2.25,6.209-4.956-1.8L97.786,65a1.736,1.736,0,0,0-.711-2.063,1.479,1.479,0,0,1-.7-1.257v-2.8h14.94Zm11.023-6.586a2.354,2.354,0,0,1-2.351,2.351H86.477a2.354,2.354,0,0,1-2.351-2.351V51.675h38.21Z" transform="translate(-13.628 0)" fill="#17b8bc"/>
</svg>
